<svg width="24" height="24" viewBox="0 0 24 24" fill="none" xmlns="http://www.w3.org/2000/svg">
<path d="M5.25 21C5.25072 21.1335 5.28663 21.2645 5.35411 21.3797C5.4216 21.4949 5.51827 21.5903 5.63437 21.6562C5.74561 21.7198 5.87191 21.7522 6 21.75C6.13921 21.7503 6.27568 21.7113 6.39375 21.6375M5.25 21H5.3125V20.9998M5.25 21V4.5C5.25 4.10218 5.40804 3.72064 5.68934 3.43934C5.97064 3.15804 6.35218 3 6.75 3H17.25C17.6478 3 18.0294 3.15804 18.3107 3.43934C18.592 3.72064 18.75 4.10218 18.75 4.5V21M5.25 21L5.3125 20.9997C5.3125 20.9997 5.3125 20.9998 5.3125 20.9998M5.3125 20.9998C5.31319 21.1223 5.34614 21.2424 5.40804 21.3481C5.46997 21.4539 5.55869 21.5414 5.66524 21.6019L5.66538 21.602C5.76685 21.66 5.88208 21.6895 5.99893 21.6875L6.00011 21.6875C6.12758 21.6877 6.25253 21.652 6.36064 21.5845M5.3125 20.9998V4.5C5.3125 4.11875 5.46395 3.75312 5.73353 3.48353C6.00312 3.21395 6.36875 3.0625 6.75 3.0625H17.25C17.6312 3.0625 17.9969 3.21395 18.2665 3.48353C18.536 3.75312 18.6875 4.11875 18.6875 4.5L18.6875 20.9997L18.75 21M6.36064 21.5845L6.36061 21.5845L6.39375 21.6375M6.36064 21.5845L6.39375 21.6375M6.36064 21.5845L11.9669 18.0783L12 18.0575L12.0332 18.0783L17.6291 21.5839L17.5969 21.6375M6.39375 21.6375L12 18.1312L17.5969 21.6375M17.5969 21.6375L17.6301 21.5845L17.6296 21.5842C17.7357 21.6479 17.8566 21.683 17.9803 21.686C18.104 21.689 18.2263 21.6599 18.3354 21.6015M17.5969 21.6375C17.7124 21.7069 17.844 21.7452 17.9788 21.7485C18.1135 21.7518 18.2468 21.72 18.3656 21.6562M18.3656 21.6562C18.4817 21.5903 18.5784 21.4949 18.6459 21.3797C18.7134 21.2645 18.7493 21.1335 18.75 21M18.3656 21.6562L18.3361 21.6012C18.3359 21.6013 18.3356 21.6014 18.3354 21.6015M18.3656 21.6562L18.3348 21.6019C18.335 21.6018 18.3352 21.6016 18.3354 21.6015M18.75 21H18.6875V20.9998C18.6868 21.1223 18.6539 21.2424 18.592 21.3481C18.5302 21.4536 18.4417 21.541 18.3354 21.6015" fill="#32384A" stroke="#32384A" stroke-width="0.125"/>
</svg>
