<svg width="32" height="32" viewBox="0 0 32 32" fill="none" xmlns="http://www.w3.org/2000/svg">
<path d="M31.0009 16.4998C31.001 15.1751 30.6252 13.8775 29.9171 12.7579C29.2091 11.6382 28.1978 10.7425 27.0009 10.1748V8.99978C27.0001 7.7112 26.5843 6.45714 25.8153 5.42318C25.0463 4.38922 23.9649 3.63031 22.731 3.25875C21.4972 2.88719 20.1765 2.92273 18.9644 3.36011C17.7523 3.79749 16.7132 4.61346 16.0009 5.68728C15.2886 4.61346 14.2496 3.79749 13.0375 3.36011C11.8254 2.92273 10.5047 2.88719 9.27086 3.25875C8.03701 3.63031 6.95555 4.38922 6.18654 5.42318C5.41753 6.45714 5.00182 7.7112 5.00094 8.99978V10.1748C3.80386 10.7424 2.79243 11.6381 2.0842 12.7577C1.37596 13.8773 1 15.175 1 16.4998C1 17.8246 1.37596 19.1222 2.0842 20.2419C2.79243 21.3615 3.80386 22.2572 5.00094 22.8248V22.9998C5.00182 24.2884 5.41753 25.5424 6.18654 26.5764C6.95555 27.6103 8.03701 28.3693 9.27086 28.7408C10.5047 29.1124 11.8254 29.0768 13.0375 28.6395C14.2496 28.2021 15.2886 27.3861 16.0009 26.3123C16.7132 27.3861 17.7523 28.2021 18.9644 28.6395C20.1765 29.0768 21.4972 29.1124 22.731 28.7408C23.9649 28.3693 25.0463 27.6103 25.8153 26.5764C26.5843 25.5424 27.0001 24.2884 27.0009 22.9998V22.8248C28.1969 22.2558 29.2073 21.3598 29.9152 20.2405C30.6231 19.1211 30.9995 17.8242 31.0009 16.4998ZM11.0009 26.9998C10.0141 26.9992 9.06224 26.6338 8.32847 25.9739C7.5947 25.314 7.13079 24.4061 7.02594 23.4248C7.34844 23.4756 7.67446 23.5007 8.00094 23.4998H9.00094C9.26615 23.4998 9.52051 23.3944 9.70804 23.2069C9.89558 23.0194 10.0009 22.765 10.0009 22.4998C10.0009 22.2346 9.89558 21.9802 9.70804 21.7927C9.52051 21.6051 9.26615 21.4998 9.00094 21.4998H8.00094C6.82259 21.4978 5.68281 21.0797 4.78268 20.3192C3.88256 19.5588 3.27993 18.5048 3.08113 17.3434C2.88232 16.1819 3.1001 14.9876 3.69606 13.971C4.29201 12.9545 5.22784 12.1811 6.33844 11.7873C6.53277 11.7157 6.70047 11.5862 6.81894 11.4164C6.9374 11.2465 7.00092 11.0444 7.00094 10.8373V8.99978C7.00094 7.93892 7.42236 6.9215 8.17251 6.17136C8.92266 5.42121 9.94007 4.99978 11.0009 4.99978C12.0618 4.99978 13.0792 5.42121 13.8294 6.17136C14.5795 6.9215 15.0009 7.93892 15.0009 8.99978V18.5373C13.9061 17.5437 12.4794 16.9953 11.0009 16.9998C10.7357 16.9998 10.4814 17.1051 10.2938 17.2927C10.1063 17.4802 10.0009 17.7346 10.0009 17.9998C10.0009 18.265 10.1063 18.5194 10.2938 18.7069C10.4814 18.8944 10.7357 18.9998 11.0009 18.9998C12.0618 18.9998 13.0792 19.4212 13.8294 20.1714C14.5795 20.9215 15.0009 21.9389 15.0009 22.9998C15.0009 24.0606 14.5795 25.0781 13.8294 25.8282C13.0792 26.5784 12.0618 26.9998 11.0009 26.9998ZM24.0009 21.4998H23.0009C22.7357 21.4998 22.4814 21.6051 22.2938 21.7927C22.1063 21.9802 22.0009 22.2346 22.0009 22.4998C22.0009 22.765 22.1063 23.0194 22.2938 23.2069C22.4814 23.3944 22.7357 23.4998 23.0009 23.4998H24.0009C24.3274 23.5007 24.6534 23.4756 24.9759 23.4248C24.8938 24.1935 24.5906 24.922 24.1032 25.522C23.6157 26.122 22.9648 26.568 22.2291 26.8058C21.4935 27.0436 20.7048 27.0632 19.9583 26.8621C19.2118 26.6611 18.5395 26.248 18.0229 25.6729C17.5063 25.0977 17.1674 24.3852 17.0472 23.6215C16.927 22.8578 17.0308 22.0756 17.3458 21.3696C17.6609 20.6637 18.1738 20.0641 18.8225 19.6435C19.4712 19.2229 20.2278 18.9993 21.0009 18.9998C21.2662 18.9998 21.5205 18.8944 21.708 18.7069C21.8956 18.5194 22.0009 18.265 22.0009 17.9998C22.0009 17.7346 21.8956 17.4802 21.708 17.2927C21.5205 17.1051 21.2662 16.9998 21.0009 16.9998C19.5225 16.9953 18.0957 17.5437 17.0009 18.5373V8.99978C17.0009 7.93892 17.4224 6.9215 18.1725 6.17136C18.9227 5.42121 19.9401 4.99978 21.0009 4.99978C22.0618 4.99978 23.0792 5.42121 23.8294 6.17136C24.5795 6.9215 25.0009 7.93892 25.0009 8.99978V10.8373C25.001 11.0444 25.0645 11.2465 25.1829 11.4164C25.3014 11.5862 25.4691 11.7157 25.6634 11.7873C26.774 12.1811 27.7099 12.9545 28.3058 13.971C28.9018 14.9876 29.1196 16.1819 28.9207 17.3434C28.7219 18.5048 28.1193 19.5588 27.2192 20.3192C26.3191 21.0797 25.1793 21.4978 24.0009 21.4998ZM7.50094 15.9998C7.23572 15.9998 6.98137 15.8944 6.79383 15.7069C6.60629 15.5194 6.50094 15.265 6.50094 14.9998C6.50094 14.7346 6.60629 14.4802 6.79383 14.2927C6.98137 14.1051 7.23572 13.9998 7.50094 13.9998C8.16297 13.9965 8.79694 13.7321 9.26507 13.2639C9.7332 12.7958 9.99765 12.1618 10.0009 11.4998V10.4998C10.0009 10.2346 10.1063 9.98021 10.2938 9.79268C10.4814 9.60514 10.7357 9.49978 11.0009 9.49978C11.2662 9.49978 11.5205 9.60514 11.708 9.79268C11.8956 9.98021 12.0009 10.2346 12.0009 10.4998V11.4998C12.0009 12.6933 11.5268 13.8378 10.6829 14.6818C9.839 15.5257 8.69441 15.9998 7.50094 15.9998ZM25.5009 14.9998C25.5009 15.265 25.3956 15.5194 25.208 15.7069C25.0205 15.8944 24.7662 15.9998 24.5009 15.9998C23.3075 15.9998 22.1629 15.5257 21.319 14.6818C20.475 13.8378 20.0009 12.6933 20.0009 11.4998V10.4998C20.0009 10.2346 20.1063 9.98021 20.2938 9.79268C20.4814 9.60514 20.7357 9.49978 21.0009 9.49978C21.2662 9.49978 21.5205 9.60514 21.708 9.79268C21.8956 9.98021 22.0009 10.2346 22.0009 10.4998V11.4998C22.0042 12.1618 22.2687 12.7958 22.7368 13.2639C23.2049 13.7321 23.8389 13.9965 24.5009 13.9998C24.7662 13.9998 25.0205 14.1051 25.208 14.2927C25.3956 14.4802 25.5009 14.7346 25.5009 14.9998Z" fill="#32384A"/>
</svg>
