<svg width="23" height="24" viewBox="0 0 23 24" fill="none" xmlns="http://www.w3.org/2000/svg">
<path d="M21.1809 11.1875H21.2494L21.2431 11.1192C21.0525 9.06067 20.2097 7.11669 18.8376 5.57032C17.4655 4.02394 15.6356 2.95591 13.6143 2.52171L13.4379 2.4838L13.5531 2.62271C15.4579 4.91943 16.591 7.90323 16.7653 11.1284L16.7685 11.1875H16.8277H21.1809ZM8.13242 12.8125H8.06589L8.07004 12.8789C8.26776 16.0424 9.53098 18.9993 11.5551 21.0563L11.5996 21.1016L11.6442 21.0563C13.6682 18.9993 14.9315 16.0424 15.1292 12.8789L15.1333 12.8125H15.0668H8.13242ZM8.07004 11.1211L8.06589 11.1875H8.13242H15.0668H15.1333L15.1292 11.1211C14.9315 7.9576 13.6682 5.00075 11.6442 2.94366L11.5996 2.89839L11.5551 2.94366C9.53098 5.00075 8.26776 7.9576 8.07004 11.1211ZM13.5531 21.3773L13.4379 21.5162L13.6143 21.4783C15.6356 21.0441 17.4655 19.9761 18.8376 18.4297C20.2097 16.8833 21.0525 14.9393 21.2431 12.8808L21.2494 12.8125H21.1809H16.8277H16.7685L16.7653 12.8716C16.591 16.0968 15.4579 19.0806 13.5531 21.3773ZM19.5956 4.00405C21.7164 6.12493 22.9092 9.00063 22.9121 12C22.9092 14.9994 21.7164 17.8751 19.5956 19.9959C17.4747 22.1168 14.5989 23.3096 11.5995 23.3125C8.59931 23.3125 5.72195 22.1206 3.60046 19.9991C1.47896 17.8776 0.287109 15.0003 0.287109 12C0.287109 8.99974 1.47896 6.12236 3.60046 4.00085C5.72196 1.87936 8.59933 0.687508 11.5996 0.6875C14.599 0.690388 17.4747 1.88317 19.5956 4.00405Z" fill="#052DC1" stroke="#052DC1" stroke-width="0.125"/>
</svg>
