<svg width="40" height="40" viewBox="0 0 40 40" fill="none" xmlns="http://www.w3.org/2000/svg">
<rect width="40" height="40" rx="12" fill="#EFF6FF"/>
<path d="M8 32L9.69541 25.8375C8.64801 24.0297 8.09784 21.979 8.10037 19.892C8.10313 13.3347 13.4634 8 20.0503 8C23.2467 8.00162 26.2469 9.23997 28.5033 11.4879C30.7597 13.7358 32.0011 16.7238 32 19.9015C31.9971 26.4584 26.636 31.794 20.0501 31.794H20.0449C18.0451 31.7932 16.0801 31.2938 14.3347 30.3463L8 32Z" fill="white"/>
<path d="M20.0539 10.0088C14.5753 10.0088 10.1199 14.4427 10.1179 19.8927C10.1152 21.7537 10.6416 23.5774 11.6363 25.1531L11.8726 25.5271L10.8691 29.1744L14.6283 28.1931L14.9912 28.4072C16.5158 29.308 18.2638 29.7843 20.0465 29.7853H20.0502C25.5246 29.7853 29.98 25.3509 29.9821 19.9006C29.9863 18.6015 29.7315 17.3146 29.2326 16.1142C28.7338 14.9138 28.0007 13.8239 27.0758 12.9075C26.156 11.9861 25.0618 11.2555 23.8565 10.7579C22.6512 10.2604 21.3587 10.0057 20.0539 10.0088Z" fill="url(#paint0_linear_302_17508)"/>
<path fill-rule="evenodd" clip-rule="evenodd" d="M17.0635 14.9204C16.8397 14.4254 16.6042 14.4154 16.3916 14.4069L15.8193 14.3999C15.6202 14.3999 15.2966 14.4743 15.0231 14.7718C14.7496 15.0693 13.978 15.7883 13.978 17.2507C13.978 18.7132 15.048 20.1263 15.1971 20.3249C15.3462 20.5234 17.2626 23.6202 20.2976 24.8117C22.8197 25.8018 23.3329 25.6049 23.8806 25.5554C24.4282 25.5059 25.6471 24.8364 25.8958 24.1423C26.1444 23.4482 26.1446 22.8535 26.07 22.7291C25.9955 22.6048 25.7964 22.5309 25.4975 22.3822C25.1987 22.2334 23.731 21.5144 23.4573 21.4151C23.1837 21.3159 22.9847 21.2665 22.7854 21.564C22.5861 21.8615 22.0146 22.5308 21.8404 22.7291C21.6661 22.9275 21.4921 22.9524 21.1933 22.8038C20.8945 22.6553 19.933 22.3413 18.7922 21.3286C17.9046 20.5407 17.3055 19.5677 17.1311 19.2704C16.9567 18.973 17.1126 18.812 17.2623 18.6639C17.3963 18.5307 17.5608 18.3167 17.7104 18.1433C17.86 17.9698 17.9092 17.8458 18.0086 17.6477C18.108 17.4496 18.0584 17.2756 17.9837 17.1271C17.909 16.9785 17.3289 15.5083 17.0635 14.9204Z" fill="white"/>
<defs>
<linearGradient id="paint0_linear_302_17508" x1="19.8478" y1="11.1956" x2="19.9476" y2="28.0958" gradientUnits="userSpaceOnUse">
<stop stop-color="#57D163"/>
<stop offset="1" stop-color="#23B33A"/>
</linearGradient>
</defs>
</svg>
