<svg width="28" height="28" viewBox="0 0 28 28" fill="none" xmlns="http://www.w3.org/2000/svg">
<path d="M23.9315 11.342L15.1815 3.39046C14.8589 3.09532 14.4375 2.93164 14.0002 2.93164C13.563 2.93164 13.1416 3.09532 12.819 3.39046L4.06898 11.342C3.88983 11.5059 3.74675 11.7053 3.64883 11.9275C3.55092 12.1497 3.50031 12.3898 3.50023 12.6326V22.7061C3.49312 23.1473 3.64888 23.5756 3.93773 23.9092C4.10167 24.0956 4.30363 24.2448 4.53002 24.3467C4.7564 24.4485 5.00198 24.5008 5.25023 24.4998H10.5002C10.7323 24.4998 10.9549 24.4076 11.119 24.2436C11.283 24.0795 11.3752 23.8569 11.3752 23.6248V18.3748C11.3752 18.1428 11.4674 17.9202 11.6315 17.7561C11.7956 17.592 12.0182 17.4998 12.2502 17.4998H15.7502C15.9823 17.4998 16.2049 17.592 16.369 17.7561C16.533 17.9202 16.6252 18.1428 16.6252 18.3748V23.6248C16.6252 23.8569 16.7174 24.0795 16.8815 24.2436C17.0456 24.4076 17.2682 24.4998 17.5002 24.4998H22.7502C23.0405 24.5024 23.3266 24.4309 23.5815 24.292C23.8588 24.141 24.0905 23.9181 24.2521 23.6468C24.4138 23.3755 24.4995 23.0657 24.5002 22.7498V12.6326C24.5002 12.3898 24.4495 12.1497 24.3516 11.9275C24.2537 11.7053 24.1106 11.5059 23.9315 11.342Z" fill="#052DC1"/>
</svg>
