<?xml version="1.0" standalone="no"?>
<!DOCTYPE svg PUBLIC "-//W3C//DTD SVG 20010904//EN"
 "http://www.w3.org/TR/2001/REC-SVG-20010904/DTD/svg10.dtd">
<svg version="1.0" xmlns="http://www.w3.org/2000/svg"
 width="92.000000pt" height="96.000000pt" viewBox="0 0 92.000000 96.000000"
 preserveAspectRatio="xMidYMid meet">

<g transform="translate(0.000000,96.000000) scale(0.100000,-0.100000)"
fill="#000000" stroke="none">
<path d="M200 680 l0 -190 70 0 70 0 0 90 c0 50 4 90 8 90 4 0 56 -40 116 -90
l108 -90 74 0 74 0 0 190 0 190 -75 0 -74 0 -3 -96 -3 -96 -110 96 -110 96
-72 0 -73 0 0 -190z"/>
<path d="M394 855 c11 -8 39 -15 62 -15 41 0 42 -1 49 -37 3 -21 15 -49 25
-63 l20 -25 0 78 0 77 -87 0 c-80 -1 -86 -2 -69 -15z"/>
<path d="M360 498 c0 -152 10 -201 47 -225 34 -22 90 -20 115 5 20 20 20 20
-23 15 -55 -6 -87 17 -95 67 -11 65 60 110 103 67 17 -17 11 -67 -8 -67 -6 0
-9 6 -6 14 3 8 -1 22 -8 33 -11 14 -18 16 -32 7 -43 -26 -16 -94 38 -94 34 0
69 41 69 81 0 15 -11 41 -24 56 -21 24 -32 28 -74 28 l-49 0 4 35 c3 23 -3 47
-15 69 -36 66 -42 52 -42 -91z"/>
<path d="M200 355 c0 -132 10 -165 63 -212 50 -44 99 -58 202 -58 76 0 98 4
139 25 28 14 64 42 80 63 30 38 31 41 34 168 l4 129 -76 0 -76 0 0 -84 c0 -68
-4 -88 -20 -108 -41 -53 -125 -61 -168 -15 -31 33 -42 71 -42 143 l0 64 -70 0
-70 0 0 -115z"/>
</g>
</svg>
