<svg width="24" height="24" viewBox="0 0 24 24" fill="none" xmlns="http://www.w3.org/2000/svg">
<path d="M16.8751 19.6499C17.3946 19.4227 17.896 19.1563 18.3751 18.8531V22.4999C18.3751 22.6988 18.2961 22.8896 18.1555 23.0303C18.0148 23.1709 17.824 23.2499 17.6251 23.2499C17.4262 23.2499 17.2354 23.1709 17.0948 23.0303C16.9541 22.8896 16.8751 22.6988 16.8751 22.4999V19.6499ZM11.3345 8.64369C11.2437 8.82092 11.2251 9.02648 11.2828 9.21709C11.3406 9.4077 11.47 9.56848 11.6439 9.66556L16.0314 11.9999L17.6251 11.1468L12.3564 8.33431C12.1791 8.24347 11.9736 8.22495 11.783 8.28266C11.5924 8.34037 11.4316 8.4698 11.3345 8.64369ZM23.6064 8.33431L12.3564 2.33431C12.2458 2.27903 12.1238 2.25024 12.0001 2.25024C11.8765 2.25024 11.7545 2.27903 11.6439 2.33431L0.39387 8.33431C0.274609 8.3998 0.175132 8.49613 0.105844 8.61322C0.0365555 8.73032 0 8.86388 0 8.99994C0 9.13599 0.0365555 9.26955 0.105844 9.38665C0.175132 9.50374 0.274609 9.60007 0.39387 9.66556L2.62512 10.8468V15.5156C2.62371 15.8375 2.72923 16.1507 2.92512 16.4062C3.66575 17.3999 6.51575 20.6249 12.0001 20.6249C13.6758 20.6389 15.3361 20.3037 16.8751 19.6406V12.4499L16.0314 11.9999L12.0001 14.1468L3.73137 9.74056L2.34387 8.99994L12.0001 3.85306L21.6564 8.99994L20.2689 9.74056L17.6251 11.1468L17.9814 11.3343C18.1082 11.4075 18.2121 11.5147 18.2814 11.6437C18.3437 11.752 18.3761 11.875 18.3751 11.9999V18.8531C19.4111 18.2013 20.3249 17.3732 21.0751 16.4062C21.271 16.1507 21.3765 15.8375 21.3751 15.5156V10.8468L23.6064 9.66556C23.7256 9.60007 23.8251 9.50374 23.8944 9.38665C23.9637 9.26955 24.0002 9.13599 24.0002 8.99994C24.0002 8.86388 23.9637 8.73032 23.8944 8.61322C23.8251 8.49613 23.7256 8.3998 23.6064 8.33431V8.33431Z" fill="#32384A"/>
</svg>
