<svg width="35" height="33" viewBox="0 0 35 33" fill="none" xmlns="http://www.w3.org/2000/svg">
<path opacity="0.2" d="M17.3979 30.2765C25.0563 30.2765 31.2646 24.3134 31.2646 16.9576C31.2646 9.60174 25.0563 3.63867 17.3979 3.63867C9.73957 3.63867 3.53125 9.60174 3.53125 16.9576C3.53125 24.3134 9.73957 30.2765 17.3979 30.2765Z" fill="#7D8499"/>
<path d="M18.8682 16.9572L22.0575 13.8939C22.4596 13.5076 22.4596 12.8683 22.0575 12.4821C21.6554 12.0958 20.9898 12.0958 20.5876 12.4821L17.3983 15.5454L14.209 12.4821C13.8068 12.0958 13.1412 12.0958 12.7391 12.4821C12.337 12.8683 12.337 13.5076 12.7391 13.8939L15.9284 16.9572L12.7391 20.0206C12.337 20.4068 12.337 21.0461 12.7391 21.4324C12.9471 21.6321 13.2106 21.7254 13.474 21.7254C13.7375 21.7254 14.001 21.6321 14.209 21.4324L17.3983 18.369L20.5876 21.4324C20.7956 21.6321 21.0591 21.7254 21.3226 21.7254C21.586 21.7254 21.8495 21.6321 22.0575 21.4324C22.4596 21.0461 22.4596 20.4068 22.0575 20.0206L18.8682 16.9572Z" fill="#7D8499"/>
</svg>
