<svg width="28" height="28" viewBox="0 0 28 28" fill="none" xmlns="http://www.w3.org/2000/svg">
<path d="M21 18.6663C21.9283 18.6663 22.8185 19.0351 23.4749 19.6915C24.1312 20.3478 24.5 21.2381 24.5 22.1663C24.5 23.0946 24.1312 23.9848 23.4749 24.6412C22.8185 25.2976 21.9283 25.6663 21 25.6663C20.0717 25.6663 19.1815 25.2976 18.5251 24.6412C17.8687 23.9848 17.5 23.0946 17.5 22.1663C17.5 21.2381 17.8687 20.3478 18.5251 19.6915C19.1815 19.0351 20.0717 18.6663 21 18.6663ZM18.0833 4.66634C19.4757 4.66634 20.8111 5.21946 21.7956 6.20403C22.7802 7.1886 23.3333 8.52395 23.3333 9.91634C23.3333 11.3087 22.7802 12.6441 21.7956 13.6287C20.8111 14.6132 19.4757 15.1663 18.0833 15.1663H9.91667C9.14312 15.1663 8.40125 15.4736 7.85427 16.0206C7.30729 16.5676 7 17.3095 7 18.083C7 18.8566 7.30729 19.5984 7.85427 20.1454C8.40125 20.6924 9.14312 20.9997 9.91667 20.9997H18.1667C18.4761 20.9997 18.7728 21.1226 18.9916 21.3414C19.2104 21.5602 19.3333 21.8569 19.3333 22.1663C19.3333 22.4758 19.2104 22.7725 18.9916 22.9913C18.7728 23.2101 18.4761 23.333 18.1667 23.333H9.91667C8.52428 23.333 7.18892 22.7799 6.20436 21.7953C5.21979 20.8108 4.66667 19.4754 4.66667 18.083C4.66667 16.6906 5.21979 15.3553 6.20436 14.3707C7.18892 13.3861 8.52428 12.833 9.91667 12.833H18.0833C18.8569 12.833 19.5987 12.5257 20.1457 11.9787C20.6927 11.4318 21 10.6899 21 9.91634C21 9.14279 20.6927 8.40093 20.1457 7.85395C19.5987 7.30697 18.8569 6.99967 18.0833 6.99967H9.83333C9.52391 6.99967 9.22717 6.87676 9.00838 6.65797C8.78958 6.43917 8.66667 6.14243 8.66667 5.83301C8.66667 5.52359 8.78958 5.22684 9.00838 5.00805C9.22717 4.78926 9.52391 4.66634 9.83333 4.66634H18.0833ZM7 2.33301C7.92826 2.33301 8.8185 2.70176 9.47487 3.35813C10.1313 4.01451 10.5 4.90475 10.5 5.83301C10.5 6.76127 10.1313 7.6515 9.47487 8.30788C8.8185 8.96426 7.92826 9.33301 7 9.33301C6.07174 9.33301 5.1815 8.96426 4.52513 8.30788C3.86875 7.6515 3.5 6.76127 3.5 5.83301C3.5 4.90475 3.86875 4.01451 4.52513 3.35813C5.1815 2.70176 6.07174 2.33301 7 2.33301Z" fill="black"/>
</svg>
