<?xml version="1.0" encoding="UTF-8"?>
<!DOCTYPE svg PUBLIC "-//W3C//DTD SVG 1.1//EN" "http://www.w3.org/Graphics/SVG/1.1/DTD/svg11.dtd">
<svg xmlns="http://www.w3.org/2000/svg" version="1.1" width="512px" height="512px" style="shape-rendering:geometricPrecision; text-rendering:geometricPrecision; image-rendering:optimizeQuality; fill-rule:evenodd; clip-rule:evenodd" xmlns:xlink="http://www.w3.org/1999/xlink">
<g><path style="opacity:0.999" fill="#d5e8cb" d="M 377.5,235.5 C 374.167,234.714 371.001,235.381 368,237.5C 356.817,227.95 346.65,217.45 337.5,206C 333.508,203.393 329.508,200.893 325.5,198.5C 318.078,203.586 312.078,209.92 307.5,217.5C 304.5,219.833 301.833,222.5 299.5,225.5C 298.833,225.5 298.167,225.5 297.5,225.5C 298.167,224.5 298.833,223.5 299.5,222.5C 307.845,213.486 315.845,204.153 323.5,194.5C 337.487,178.514 351.82,162.847 366.5,147.5C 371.308,144.586 376.642,143.752 382.5,145C 403.663,152.828 413.496,167.995 412,190.5C 410.667,193.167 409.333,195.833 408,198.5C 398.347,211.314 388.18,223.647 377.5,235.5 Z"/></g>
<g><path style="opacity:0.873" fill="#bfd8b1" d="M 366.5,147.5 C 351.82,162.847 337.487,178.514 323.5,194.5C 323.103,193.475 322.437,193.308 321.5,194C 319.597,196.405 317.264,198.239 314.5,199.5C 313.893,199.376 313.56,199.043 313.5,198.5C 323.284,186.547 333.618,175.047 344.5,164C 351.684,158.248 359.018,152.748 366.5,147.5 Z"/></g>
<g><path style="opacity:1" fill="#bedfbd" d="M 377.5,235.5 C 372.47,241.525 367.47,247.525 362.5,253.5C 360.504,251.083 359.504,251.75 359.5,255.5C 357.181,256.167 354.847,256.334 352.5,256C 339.473,242.973 326.473,229.973 313.5,217C 311.402,216.322 309.402,216.489 307.5,217.5C 312.078,209.92 318.078,203.586 325.5,198.5C 329.508,200.893 333.508,203.393 337.5,206C 346.65,217.45 356.817,227.95 368,237.5C 371.001,235.381 374.167,234.714 377.5,235.5 Z"/></g>
<g><path style="opacity:0.995" fill="#05699d" d="M 93.5,193.5 C 91.2651,196.291 89.2651,199.291 87.5,202.5C 86.8333,203.5 86.1667,204.5 85.5,205.5C 81.0405,219.333 83.7071,231.667 93.5,242.5C 92.3052,242.322 91.1385,241.989 90,241.5C 88.6293,242.581 87.1293,243.415 85.5,244C 84.4147,246.172 83.0814,248.172 81.5,250C 81.8333,250.333 82.1667,250.667 82.5,251C 79.4113,252.916 76.4113,254.082 73.5,254.5C 69.7228,250.618 67.2228,245.951 66,240.5C 63.7004,228.693 66.5338,218.359 74.5,209.5C 80.3086,203.445 86.6419,198.112 93.5,193.5 Z"/></g>
<g><path style="opacity:0.757" fill="#96c699" d="M 323.5,194.5 C 315.845,204.153 307.845,213.486 299.5,222.5C 299.631,221.761 299.464,221.094 299,220.5C 296.072,223.711 292.739,226.377 289,228.5C 288.536,227.906 288.369,227.239 288.5,226.5C 296.805,217.192 305.138,207.859 313.5,198.5C 313.56,199.043 313.893,199.376 314.5,199.5C 317.264,198.239 319.597,196.405 321.5,194C 322.437,193.308 323.103,193.475 323.5,194.5 Z"/></g>
<g><path style="opacity:1" fill="#9ad5b3" d="M 362.5,253.5 C 357.219,261.114 351.219,268.114 344.5,274.5C 344.298,273.636 343.964,272.636 343.5,271.5C 342.522,271.977 341.689,272.643 341,273.5C 340.25,272.874 339.416,272.374 338.5,272C 325.834,258.501 312.834,245.334 299.5,232.5C 297.518,231.377 295.518,231.377 293.5,232.5C 295.5,230.167 297.5,227.833 299.5,225.5C 301.833,222.5 304.5,219.833 307.5,217.5C 309.402,216.489 311.402,216.322 313.5,217C 326.473,229.973 339.473,242.973 352.5,256C 354.847,256.334 357.181,256.167 359.5,255.5C 359.504,251.75 360.504,251.083 362.5,253.5 Z"/></g>
<g><path style="opacity:1" fill="#1f99c4" d="M 111.5,204.5 C 116.392,212.048 121.726,218.548 127.5,224C 127.167,224.333 126.833,224.667 126.5,225C 129.667,229.991 133.334,234.491 137.5,238.5C 137.291,239.086 136.957,239.586 136.5,240C 138.979,244.139 141.813,247.972 145,251.5C 145.667,250.167 146.333,250.167 147,251.5C 147.892,254.284 149.058,256.95 150.5,259.5C 149.391,261.214 150.058,261.881 152.5,261.5C 152.343,262.873 152.51,264.207 153,265.5C 155.756,268.018 157.756,271.018 159,274.5C 160.008,274.982 161.175,275.148 162.5,275C 162.167,275.333 161.833,275.667 161.5,276C 162.627,277.753 163.627,279.587 164.5,281.5C 163.471,281.296 162.471,281.796 161.5,283C 162.711,283.893 162.711,284.726 161.5,285.5C 160.749,284.624 160.249,283.624 160,282.5C 159.333,285.167 158.667,285.167 158,282.5C 156.667,283.167 155.333,283.833 154,284.5C 146.526,277.695 139.026,270.862 131.5,264C 128.167,262.667 124.833,261.333 121.5,260C 113.525,251.348 105.025,243.515 96,236.5C 95.5357,237.094 95.369,237.761 95.5,238.5C 86.7933,229.387 83.46,218.387 85.5,205.5C 86.1667,204.5 86.8333,203.5 87.5,202.5C 88.2506,203.573 89.2506,203.74 90.5,203C 93.8878,200.639 97.5544,198.806 101.5,197.5C 104.273,198.468 106.773,199.801 109,201.5C 109.333,201.167 109.667,200.833 110,200.5C 111.262,201.875 111.762,203.208 111.5,204.5 Z"/></g>
<g><path style="opacity:1" fill="#1ca4c3" d="M 122.5,192.5 C 119.868,193.867 120.202,194.701 123.5,195C 122.167,195.333 120.833,195.667 119.5,196C 127.252,200.387 133.586,206.221 138.5,213.5C 139.325,214.386 140.325,214.719 141.5,214.5C 167.581,241.921 194.248,269.254 221.5,296.5C 223.754,298.919 226.421,300.752 229.5,302C 232.317,301.26 234.817,301.427 237,302.5C 245.895,316.032 255.561,330.032 266,344.5C 266.658,346.108 266.158,347.275 264.5,348C 265.333,348.833 266.167,349.667 267,350.5C 268.619,351.083 270.452,351.083 272.5,350.5C 273.192,351.025 273.692,351.692 274,352.5C 276.543,351.793 278.709,350.46 280.5,348.5C 281.183,348.863 281.85,349.196 282.5,349.5C 279.959,353.252 276.959,356.585 273.5,359.5C 273.565,359.062 273.399,358.728 273,358.5C 271.615,361.386 269.449,363.386 266.5,364.5C 265.807,360.722 264.64,360.722 263,364.5C 263.818,361.169 263.651,357.836 262.5,354.5C 260.007,354.671 258.174,353.671 257,351.5C 256.667,351.833 256.333,352.167 256,352.5C 255.517,351.552 255.351,350.552 255.5,349.5C 250.524,349.354 247.024,347.02 245,342.5C 243.442,343.345 242.442,342.679 242,340.5C 241.282,341.451 240.449,341.617 239.5,341C 235.809,337.97 232.142,334.97 228.5,332C 228.833,331.667 229.167,331.333 229.5,331C 226.174,326.674 222.507,322.674 218.5,319C 218.833,318.667 219.167,318.333 219.5,318C 217.608,314.173 215.608,311.006 213.5,308.5C 214.46,307.188 214.294,305.854 213,304.5C 209.88,301.714 207.546,298.38 206,294.5C 205.333,293.167 204.667,293.167 204,294.5C 203.773,291.94 202.44,290.274 200,289.5C 198.249,284.765 195.415,280.932 191.5,278C 191.833,277.667 192.167,277.333 192.5,277C 191.5,276.667 190.5,276.333 189.5,276C 190.451,275.282 190.617,274.449 190,273.5C 187.508,271.211 185.008,268.877 182.5,266.5C 182.709,265.914 183.043,265.414 183.5,265C 168.934,252.391 155.601,240.058 143.5,228C 141.089,226.045 138.589,224.211 136,222.5C 135.51,221.207 135.343,219.873 135.5,218.5C 130.817,216.616 126.817,214.449 123.5,212C 124.451,211.282 124.617,210.449 124,209.5C 120.911,208.949 118.078,207.783 115.5,206C 116.711,205.107 116.711,204.274 115.5,203.5C 114.158,204.902 113.324,204.569 113,202.5C 112.722,203.416 112.222,204.082 111.5,204.5C 111.762,203.208 111.262,201.875 110,200.5C 109.667,200.833 109.333,201.167 109,201.5C 106.773,199.801 104.273,198.468 101.5,197.5C 97.5544,198.806 93.8878,200.639 90.5,203C 89.2506,203.74 88.2506,203.573 87.5,202.5C 89.2651,199.291 91.2651,196.291 93.5,193.5C 103.04,188.676 112.707,188.343 122.5,192.5 Z"/></g>
<g><path style="opacity:1" fill="#75ccb0" d="M 344.5,274.5 C 341.313,279.538 337.647,284.205 333.5,288.5C 330.419,286.316 326.919,283.649 323,280.5C 311.967,267.135 299.967,254.801 287,243.5C 285.862,243.989 284.695,244.322 283.5,244.5C 286.457,240.208 289.79,236.208 293.5,232.5C 295.518,231.377 297.518,231.377 299.5,232.5C 312.834,245.334 325.834,258.501 338.5,272C 339.416,272.374 340.25,272.874 341,273.5C 341.689,272.643 342.522,271.977 343.5,271.5C 343.964,272.636 344.298,273.636 344.5,274.5 Z"/></g>
<g><path style="opacity:1" fill="#54a886" d="M 299.5,222.5 C 298.833,223.5 298.167,224.5 297.5,225.5C 289.868,234.467 281.868,243.134 273.5,251.5C 273.44,250.957 273.107,250.624 272.5,250.5C 270.421,251.912 268.421,253.412 266.5,255C 265.563,255.692 264.897,255.525 264.5,254.5C 272.51,245.126 280.51,235.793 288.5,226.5C 288.369,227.239 288.536,227.906 289,228.5C 292.739,226.377 296.072,223.711 299,220.5C 299.464,221.094 299.631,221.761 299.5,222.5 Z"/></g>
<g><path style="opacity:1" fill="#5bc5b2" d="M 333.5,288.5 C 331.157,291.207 328.823,293.874 326.5,296.5C 324.956,296.703 323.622,297.37 322.5,298.5C 307.778,283.4 293.278,268.066 279,252.5C 277.67,253.582 276.17,254.249 274.5,254.5C 277.041,250.748 280.041,247.415 283.5,244.5C 284.695,244.322 285.862,243.989 287,243.5C 299.967,254.801 311.967,267.135 323,280.5C 326.919,283.649 330.419,286.316 333.5,288.5 Z"/></g>
<g><path style="opacity:1" fill="#278f82" d="M 273.5,251.5 C 269.511,256.821 265.178,261.821 260.5,266.5C 260.44,265.957 260.107,265.624 259.5,265.5C 256.671,268.159 253.671,270.659 250.5,273C 249.563,273.692 248.897,273.525 248.5,272.5C 253.491,266.177 258.824,260.177 264.5,254.5C 264.897,255.525 265.563,255.692 266.5,255C 268.421,253.412 270.421,251.912 272.5,250.5C 273.107,250.624 273.44,250.957 273.5,251.5 Z"/></g>
<g><path style="opacity:1" fill="#41beb4" d="M 326.5,296.5 C 322.156,301.873 317.823,307.206 313.5,312.5C 313.565,312.062 313.399,311.728 313,311.5C 311.291,314.712 309.791,314.878 308.5,312C 309.517,310.951 309.684,309.784 309,308.5C 301.48,300.615 294.313,292.448 287.5,284C 281.808,280.485 276.808,275.985 272.5,270.5C 270.247,269.747 268.413,268.414 267,266.5C 265.539,267.883 264.706,267.549 264.5,265.5C 267.862,261.808 271.195,258.141 274.5,254.5C 276.17,254.249 277.67,253.582 279,252.5C 293.278,268.066 307.778,283.4 322.5,298.5C 323.622,297.37 324.956,296.703 326.5,296.5 Z"/></g>
<g><path style="opacity:1" fill="#147a85" d="M 260.5,266.5 C 251.539,277.463 242.206,288.129 232.5,298.5C 230.067,298.727 228.401,297.727 227.5,295.5C 234.267,287.644 241.267,279.977 248.5,272.5C 248.897,273.525 249.563,273.692 250.5,273C 253.671,270.659 256.671,268.159 259.5,265.5C 260.107,265.624 260.44,265.957 260.5,266.5 Z"/></g>
<g><path style="opacity:1" fill="#9dcbcb" d="M 297.5,225.5 C 298.167,225.5 298.833,225.5 299.5,225.5C 297.5,227.833 295.5,230.167 293.5,232.5C 289.79,236.208 286.457,240.208 283.5,244.5C 280.041,247.415 277.041,250.748 274.5,254.5C 271.195,258.141 267.862,261.808 264.5,265.5C 259.822,270.179 255.489,275.179 251.5,280.5C 248.195,284.141 244.862,287.808 241.5,291.5C 239.193,294.638 236.359,297.305 233,299.5C 232.601,299.272 232.435,298.938 232.5,298.5C 242.206,288.129 251.539,277.463 260.5,266.5C 265.178,261.821 269.511,256.821 273.5,251.5C 281.868,243.134 289.868,234.467 297.5,225.5 Z"/></g>
<g><path style="opacity:1" fill="#26a0c6" d="M 266.5,364.5 C 262.336,367.849 259.003,372.015 256.5,377C 255.207,377.49 253.873,377.657 252.5,377.5C 253.146,375.844 253.813,374.177 254.5,372.5C 254.392,371.558 254.059,370.725 253.5,370C 246.172,367.779 239.172,364.779 232.5,361C 225.137,355.076 217.47,349.576 209.5,344.5C 208.653,343.155 207.487,342.155 206,341.5C 204.833,336.333 201.667,333.167 196.5,332C 193.517,328.687 190.183,325.687 186.5,323C 183.288,319.79 180.454,316.29 178,312.5C 168.779,304.612 160.279,296.112 152.5,287C 151.5,286.667 150.5,286.333 149.5,286C 140.669,278.668 132.003,271.168 123.5,263.5C 117.702,258.203 112.035,252.703 106.5,247C 105.184,246.472 104.517,246.972 104.5,248.5C 101.529,245.192 98.5285,241.859 95.5,238.5C 95.369,237.761 95.5357,237.094 96,236.5C 105.025,243.515 113.525,251.348 121.5,260C 124.833,261.333 128.167,262.667 131.5,264C 139.026,270.862 146.526,277.695 154,284.5C 155.333,283.833 156.667,283.167 158,282.5C 158.667,285.167 159.333,285.167 160,282.5C 160.249,283.624 160.749,284.624 161.5,285.5C 162.711,284.726 162.711,283.893 161.5,283C 162.471,281.796 163.471,281.296 164.5,281.5C 163.627,279.587 162.627,277.753 161.5,276C 161.833,275.667 162.167,275.333 162.5,275C 161.175,275.148 160.008,274.982 159,274.5C 157.756,271.018 155.756,268.018 153,265.5C 152.51,264.207 152.343,262.873 152.5,261.5C 150.058,261.881 149.391,261.214 150.5,259.5C 149.058,256.95 147.892,254.284 147,251.5C 146.333,250.167 145.667,250.167 145,251.5C 141.813,247.972 138.979,244.139 136.5,240C 136.957,239.586 137.291,239.086 137.5,238.5C 133.334,234.491 129.667,229.991 126.5,225C 126.833,224.667 127.167,224.333 127.5,224C 121.726,218.548 116.392,212.048 111.5,204.5C 112.222,204.082 112.722,203.416 113,202.5C 113.324,204.569 114.158,204.902 115.5,203.5C 116.711,204.274 116.711,205.107 115.5,206C 118.078,207.783 120.911,208.949 124,209.5C 124.617,210.449 124.451,211.282 123.5,212C 126.817,214.449 130.817,216.616 135.5,218.5C 135.343,219.873 135.51,221.207 136,222.5C 138.589,224.211 141.089,226.045 143.5,228C 155.601,240.058 168.934,252.391 183.5,265C 183.043,265.414 182.709,265.914 182.5,266.5C 185.008,268.877 187.508,271.211 190,273.5C 190.617,274.449 190.451,275.282 189.5,276C 190.5,276.333 191.5,276.667 192.5,277C 192.167,277.333 191.833,277.667 191.5,278C 195.415,280.932 198.249,284.765 200,289.5C 202.44,290.274 203.773,291.94 204,294.5C 204.667,293.167 205.333,293.167 206,294.5C 207.546,298.38 209.88,301.714 213,304.5C 214.294,305.854 214.46,307.188 213.5,308.5C 215.608,311.006 217.608,314.173 219.5,318C 219.167,318.333 218.833,318.667 218.5,319C 222.507,322.674 226.174,326.674 229.5,331C 229.167,331.333 228.833,331.667 228.5,332C 232.142,334.97 235.809,337.97 239.5,341C 240.449,341.617 241.282,341.451 242,340.5C 242.442,342.679 243.442,343.345 245,342.5C 247.024,347.02 250.524,349.354 255.5,349.5C 255.351,350.552 255.517,351.552 256,352.5C 256.333,352.167 256.667,351.833 257,351.5C 258.174,353.671 260.007,354.671 262.5,354.5C 263.651,357.836 263.818,361.169 263,364.5C 264.64,360.722 265.807,360.722 266.5,364.5 Z"/></g>
<g><path style="opacity:1" fill="#21b1be" d="M 296.5,326.5 C 296.422,327.655 296.088,328.988 295.5,330.5C 294.914,330.291 294.414,329.957 294,329.5C 292.333,330.833 290.667,332.167 289,333.5C 287.68,333.201 286.18,333.034 284.5,333C 282.842,330.377 280.508,328.544 277.5,327.5C 275.232,322.738 272.065,318.738 268,315.5C 262.401,307.028 256.568,299.361 250.5,292.5C 249.754,291.264 249.421,289.93 249.5,288.5C 246.594,288.957 243.928,289.957 241.5,291.5C 244.862,287.808 248.195,284.141 251.5,280.5C 253.044,280.297 254.378,279.63 255.5,278.5C 259.153,283.002 262.986,286.668 267,289.5C 267.333,289.167 267.667,288.833 268,288.5C 276.647,297.163 283.813,306.996 289.5,318C 288.366,319.016 288.699,319.683 290.5,320C 289.724,322.313 290.557,324.146 293,325.5C 294.922,323.895 296.089,324.228 296.5,326.5 Z"/></g>
<g><path style="opacity:1" fill="#2bb6b9" d="M 264.5,265.5 C 264.706,267.549 265.539,267.883 267,266.5C 268.413,268.414 270.247,269.747 272.5,270.5C 276.808,275.985 281.808,280.485 287.5,284C 294.313,292.448 301.48,300.615 309,308.5C 309.684,309.784 309.517,310.951 308.5,312C 309.791,314.878 311.291,314.712 313,311.5C 313.399,311.728 313.565,312.062 313.5,312.5C 310.179,317.152 306.513,321.485 302.5,325.5C 300.5,325.833 298.5,326.167 296.5,326.5C 296.089,324.228 294.922,323.895 293,325.5C 290.557,324.146 289.724,322.313 290.5,320C 288.699,319.683 288.366,319.016 289.5,318C 283.813,306.996 276.647,297.163 268,288.5C 267.667,288.833 267.333,289.167 267,289.5C 262.986,286.668 259.153,283.002 255.5,278.5C 254.378,279.63 253.044,280.297 251.5,280.5C 255.489,275.179 259.822,270.179 264.5,265.5 Z"/></g>
<g><path style="opacity:1" fill="#05588d" d="M 93.5,242.5 C 134.615,284.946 175.948,326.946 217.5,368.5C 215.774,368.185 214.107,368.019 212.5,368C 209.082,371.531 205.249,375.364 201,379.5C 198.567,378.521 196.067,377.855 193.5,377.5C 152.829,337.163 112.829,296.163 73.5,254.5C 76.4113,254.082 79.4113,252.916 82.5,251C 82.1667,250.667 81.8333,250.333 81.5,250C 83.0814,248.172 84.4147,246.172 85.5,244C 87.1293,243.415 88.6293,242.581 90,241.5C 91.1385,241.989 92.3052,242.322 93.5,242.5 Z"/></g>
<g><path style="opacity:1" fill="#1caac1" d="M 122.5,192.5 C 127.792,195.488 132.792,198.988 137.5,203C 167.059,234.391 197.059,265.224 227.5,295.5C 228.401,297.727 230.067,298.727 232.5,298.5C 232.435,298.938 232.601,299.272 233,299.5C 236.359,297.305 239.193,294.638 241.5,291.5C 243.928,289.957 246.594,288.957 249.5,288.5C 249.421,289.93 249.754,291.264 250.5,292.5C 256.568,299.361 262.401,307.028 268,315.5C 272.065,318.738 275.232,322.738 277.5,327.5C 280.508,328.544 282.842,330.377 284.5,333C 286.18,333.034 287.68,333.201 289,333.5C 290.667,332.167 292.333,330.833 294,329.5C 294.414,329.957 294.914,330.291 295.5,330.5C 296.088,328.988 296.422,327.655 296.5,326.5C 298.5,326.167 300.5,325.833 302.5,325.5C 296.151,333.842 289.484,341.842 282.5,349.5C 281.85,349.196 281.183,348.863 280.5,348.5C 278.709,350.46 276.543,351.793 274,352.5C 273.692,351.692 273.192,351.025 272.5,350.5C 270.452,351.083 268.619,351.083 267,350.5C 266.167,349.667 265.333,348.833 264.5,348C 266.158,347.275 266.658,346.108 266,344.5C 255.561,330.032 245.895,316.032 237,302.5C 234.817,301.427 232.317,301.26 229.5,302C 226.421,300.752 223.754,298.919 221.5,296.5C 194.248,269.254 167.581,241.921 141.5,214.5C 140.325,214.719 139.325,214.386 138.5,213.5C 133.586,206.221 127.252,200.387 119.5,196C 120.833,195.667 122.167,195.333 123.5,195C 120.202,194.701 119.868,193.867 122.5,192.5 Z"/></g>
<g><path style="opacity:1" fill="#1d7fb0" d="M 85.5,205.5 C 83.46,218.387 86.7933,229.387 95.5,238.5C 98.5285,241.859 101.529,245.192 104.5,248.5C 144.686,289.852 185.019,331.019 225.5,372C 228.672,373.752 231.672,375.752 234.5,378C 237.757,379.043 241.09,379.543 244.5,379.5C 247.006,378.25 249.673,377.584 252.5,377.5C 253.873,377.657 255.207,377.49 256.5,377C 259.003,372.015 262.336,367.849 266.5,364.5C 269.449,363.386 271.615,361.386 273,358.5C 273.399,358.728 273.565,359.062 273.5,359.5C 268.977,367.874 262.643,374.541 254.5,379.5C 251.763,380.031 249.096,380.864 246.5,382C 243.833,382.667 241.167,382.667 238.5,382C 231.333,377.649 224.333,373.149 217.5,368.5C 175.948,326.946 134.615,284.946 93.5,242.5C 83.7071,231.667 81.0405,219.333 85.5,205.5 Z"/></g>
<g><path style="opacity:1" fill="#94bbd2" d="M 123.5,263.5 C 158.687,297.853 193.354,332.687 227.5,368C 233.352,371.329 239.352,374.495 245.5,377.5C 245.137,378.183 244.804,378.85 244.5,379.5C 241.09,379.543 237.757,379.043 234.5,378C 231.672,375.752 228.672,373.752 225.5,372C 185.019,331.019 144.686,289.852 104.5,248.5C 104.517,246.972 105.184,246.472 106.5,247C 112.035,252.703 117.702,258.203 123.5,263.5 Z"/></g>
<g><path style="opacity:1" fill="#59a9cc" d="M 123.5,263.5 C 132.003,271.168 140.669,278.668 149.5,286C 150.5,286.333 151.5,286.667 152.5,287C 160.279,296.112 168.779,304.612 178,312.5C 180.454,316.29 183.288,319.79 186.5,323C 190.183,325.687 193.517,328.687 196.5,332C 201.667,333.167 204.833,336.333 206,341.5C 207.487,342.155 208.653,343.155 209.5,344.5C 217.47,349.576 225.137,355.076 232.5,361C 239.172,364.779 246.172,367.779 253.5,370C 254.059,370.725 254.392,371.558 254.5,372.5C 253.813,374.177 253.146,375.844 252.5,377.5C 249.673,377.584 247.006,378.25 244.5,379.5C 244.804,378.85 245.137,378.183 245.5,377.5C 239.352,374.495 233.352,371.329 227.5,368C 193.354,332.687 158.687,297.853 123.5,263.5 Z"/></g>
<g><path style="opacity:1" fill="#054d80" d="M 217.5,368.5 C 224.333,373.149 231.333,377.649 238.5,382C 241.167,382.667 243.833,382.667 246.5,382C 249.096,380.864 251.763,380.031 254.5,379.5C 248.901,383.646 243.234,387.812 237.5,392C 227.107,398.162 217.107,397.495 207.5,390C 202.639,385.968 197.972,381.801 193.5,377.5C 196.067,377.855 198.567,378.521 201,379.5C 205.249,375.364 209.082,371.531 212.5,368C 214.107,368.019 215.774,368.185 217.5,368.5 Z"/></g>
</svg>
