<svg width="17" height="16" viewBox="0 0 17 16" fill="none" xmlns="http://www.w3.org/2000/svg">
<path d="M14.0714 2.35714C15.5714 3.85714 16.5 5.82143 16.5 7.96429C16.5 12.3214 12.8571 15.8929 8.46429 15.8929C7.14286 15.8929 5.85714 15.5357 4.67857 14.9286L0.5 16L1.60714 11.8929C0.928571 10.7143 0.535714 9.35714 0.535714 7.92857C0.535714 3.57143 4.10714 0 8.46429 0C10.6071 0 12.6071 0.857143 14.0714 2.35714ZM8.46429 14.5357C12.1071 14.5357 15.1429 11.5714 15.1429 7.96429C15.1429 6.17857 14.3929 4.53571 13.1429 3.28571C11.8929 2.03571 10.25 1.35714 8.5 1.35714C4.85714 1.35714 1.89286 4.32143 1.89286 7.92857C1.89286 9.17857 2.25 10.3929 2.89286 11.4643L3.07143 11.7143L2.39286 14.1429L4.89286 13.4643L5.10714 13.6071C6.14286 14.2143 7.28571 14.5357 8.46429 14.5357ZM12.1071 9.60714C12.2857 9.71429 12.4286 9.75 12.4643 9.85714C12.5357 9.92857 12.5357 10.3214 12.3571 10.7857C12.1786 11.25 11.3929 11.6786 11.0357 11.7143C10.3929 11.8214 9.89286 11.7857 8.64286 11.2143C6.64286 10.3571 5.35714 8.35714 5.25 8.25C5.14286 8.10714 4.46429 7.17857 4.46429 6.17857C4.46429 5.21429 4.96429 4.75 5.14286 4.53571C5.32143 4.32143 5.53571 4.28571 5.67857 4.28571C5.78571 4.28571 5.92857 4.28571 6.03571 4.28571C6.17857 4.28571 6.32143 4.25 6.5 4.64286C6.64286 5.03571 7.07143 6 7.10714 6.10714C7.14286 6.21429 7.17857 6.32143 7.10714 6.46429C6.75 7.21429 6.32143 7.17857 6.53571 7.53571C7.32143 8.85714 8.07143 9.32143 9.25 9.89286C9.42857 10 9.53571 9.96429 9.67857 9.85714C9.78571 9.71429 10.1786 9.25 10.2857 9.07143C10.4286 8.85714 10.5714 8.89286 10.75 8.96429C10.9286 9.03571 11.8929 9.5 12.1071 9.60714Z" fill="#16A34A"/>
</svg>
