<svg width="29" height="28" viewBox="0 0 29 28" fill="none" xmlns="http://www.w3.org/2000/svg">
<path d="M25.6898 21.4098L25.6898 21.4098L21.1617 4.50048L25.6898 21.4098ZM25.6898 21.4098C25.8058 21.842 25.7455 22.3026 25.522 22.6902C25.2985 23.0779 24.9302 23.3609 24.498 23.477L21.1195 24.3845C20.9771 24.4171 20.8316 24.4348 20.6855 24.4374C20.3128 24.4381 19.9504 24.3154 19.6548 24.0884C19.359 23.8613 19.1468 23.5427 19.0512 23.1823L19.0512 23.1821L16.0106 11.84L15.8877 11.8561V22.7499C15.8877 23.1974 15.7099 23.6267 15.3934 23.9431C15.077 24.2596 14.6477 24.4374 14.2002 24.4374H10.7004C10.4036 24.4366 10.1124 24.3565 9.85701 24.2055L9.8252 24.1866L9.79338 24.2055C9.53794 24.3565 9.24679 24.4366 8.95003 24.4374H5.4502C5.00264 24.4374 4.57342 24.2596 4.25695 23.9431C3.94048 23.6267 3.7627 23.1974 3.7627 22.7499V5.24989C3.7627 4.80233 3.94048 4.37311 4.25695 4.05664C4.57342 3.74018 5.00264 3.56239 5.4502 3.56239H8.95012C9.24684 3.5632 9.53797 3.64327 9.79338 3.79431L9.8252 3.81312L9.85701 3.79431C10.1124 3.64327 10.4035 3.5632 10.7003 3.56239H14.2001C14.4594 3.56279 14.7151 3.62294 14.9474 3.73816C15.1797 3.8534 15.3823 4.02062 15.5396 4.22684L15.5658 4.26124M25.6898 21.4098L15.5658 4.26124M15.5658 4.26124L15.6072 4.24881M15.5658 4.26124L15.6072 4.24881M15.6072 4.24881L15.7157 4.21626L19.0945 3.30869C19.5267 3.19267 19.9872 3.25305 20.3749 3.47654C20.7625 3.70003 21.0455 4.06832 21.1617 4.50043L15.6072 4.24881ZM19.5871 4.92719L19.5707 4.86712L19.5105 4.88328L16.1309 5.79109L16.0703 5.80736L16.0868 5.86789L16.7758 8.39445L16.7922 8.45452L16.8523 8.43837L20.232 7.53056L20.2926 7.51428L20.2761 7.45375L19.5871 4.92719ZM14.2627 5.24989V5.18739H14.2002H10.7002H10.6377V5.24989V18.3749V18.4374H10.7002H14.2002H14.2627V18.3749V5.24989ZM9.0127 5.24989V5.18739H8.9502H5.4502H5.3877V5.24989V7.87489V7.93739H5.4502H8.9502H9.0127V7.87489V5.24989ZM14.2002 22.8124H14.2627V22.7499V20.1249V20.0624H14.2002H10.7002H10.6377V20.1249V22.7499V22.8124H10.7002H14.2002ZM24.082 21.9024L24.1423 21.8862L24.1262 21.8259L23.4481 19.2884L23.4319 19.228L23.3715 19.2442L19.9809 20.152L19.9203 20.1682L19.9368 20.2288L20.6258 22.7663L20.6422 22.8264L20.7023 22.8102L24.082 21.9024Z" fill="#8E8E93" stroke="#8E8E93" stroke-width="0.125"/>
</svg>
