<svg width="18" height="18" viewBox="0 0 18 18" fill="none" xmlns="http://www.w3.org/2000/svg">
<path d="M14.8774 5.63909L14.877 5.63929C14.8173 5.66742 14.7638 5.70708 14.7195 5.75598C14.6753 5.80488 14.6411 5.86206 14.619 5.92422C14.5969 5.98639 14.5874 6.0523 14.5909 6.11818C14.5944 6.18405 14.6109 6.24858 14.6395 6.30804L14.6395 6.30816C15.3038 7.69892 15.4308 9.28608 14.9961 10.7648C14.5613 12.2434 13.5956 13.5093 12.2843 14.3193C10.973 15.1292 9.40872 15.4261 7.89187 15.1529C6.37503 14.8797 5.01263 14.0556 4.06639 12.839C3.12015 11.6224 2.6568 10.0991 2.76536 8.56167C2.87392 7.02425 3.54672 5.58114 4.65453 4.50959C5.76234 3.43803 7.22702 2.81359 8.76721 2.75622C10.3074 2.69886 11.8145 3.21261 12.9989 4.19879L13.0515 4.2426L13.0031 4.29101L11.4 5.89414L11.362 5.93215L11.3187 5.90025C10.5338 5.32155 9.55964 5.06005 8.59047 5.16792C7.62131 5.27579 6.72844 5.7451 6.09002 6.48221C5.4516 7.21932 5.11456 8.17004 5.14615 9.14467C5.17774 10.1192 5.57558 11.0461 6.26031 11.7403C6.8156 12.2953 7.52639 12.6686 8.29855 12.8106C9.07079 12.9527 9.86796 12.8569 10.5845 12.5357C11.301 12.2146 11.9031 11.6834 12.3109 11.0124C12.7188 10.3415 12.9132 9.56243 12.8684 8.77851L12.8684 8.77798C12.8652 8.71266 12.8491 8.64862 12.8209 8.5896C12.7927 8.53057 12.7531 8.47775 12.7043 8.43419C12.6555 8.39063 12.5986 8.35722 12.5367 8.33589C12.4749 8.31457 12.4095 8.30575 12.3442 8.30997L12.3432 8.31003C12.2775 8.31323 12.2131 8.32936 12.1537 8.35749C12.0942 8.38562 12.0409 8.42521 11.9968 8.47398C11.9527 8.52274 11.9186 8.57974 11.8965 8.64169C11.8745 8.70358 11.8649 8.76919 11.8682 8.8348C11.8682 8.83487 11.8682 8.83495 11.8682 8.83503L11.8058 8.83822L14.8774 5.63909ZM14.8774 5.63909C14.9369 5.61053 15.0014 5.59402 15.0673 5.59051C15.1331 5.587 15.199 5.59655 15.2612 5.61863C15.3234 5.64071 15.3806 5.67487 15.4295 5.71914C15.4784 5.76341 15.518 5.81693 15.5461 5.87659L15.5463 5.87682C16.1906 7.22985 16.3999 8.74932 16.1452 10.2262C15.8905 11.703 15.1845 13.0646 14.1241 14.1237L14.124 14.1238C13.4519 14.7978 12.6533 15.3326 11.7741 15.6975C10.8949 16.0624 9.95227 16.2503 9.00034 16.2503C8.0484 16.2503 7.10582 16.0624 6.2266 15.6975C5.34738 15.3326 4.5488 14.7978 3.87662 14.1238L3.8765 14.1237C3.20244 13.4515 2.66764 12.6529 2.30274 11.7737C1.93783 10.8945 1.75 9.95188 1.75 8.99994C1.75 8.04801 1.93783 7.10543 2.30274 6.22621C2.66764 5.34699 3.20244 4.54841 3.8765 3.87623L3.87658 3.87615C5.16739 2.58424 6.89822 1.82707 8.7231 1.75599C10.548 1.6849 12.3325 2.30515 13.7198 3.49274L13.7639 3.53043M14.8774 5.63909L13.7639 3.53043M12.9145 4.2912L11.3558 5.84994C10.5583 5.26191 9.56835 4.9962 8.58356 5.1058C7.59876 5.21541 6.6915 5.69229 6.04278 6.44129C5.39406 7.19029 5.05158 8.15634 5.08368 9.1467C5.11578 10.1371 5.5201 11.0789 6.21596 11.7843C6.78023 12.3484 7.50255 12.7277 8.28724 12.8721C9.07193 13.0165 9.88197 12.9191 10.6101 12.5928C11.3381 12.2665 11.9499 11.7267 12.3644 11.0449C12.7788 10.3631 12.9763 9.57151 12.9308 8.77494C12.9272 8.70134 12.909 8.62918 12.8773 8.56268C12.8456 8.49617 12.8009 8.43665 12.7459 8.38757C12.691 8.33849 12.6268 8.30084 12.5571 8.27681C12.4875 8.25278 12.4137 8.24285 12.3402 8.2476L12.9145 4.2912ZM12.9145 4.2912C12.916 4.29241 12.9175 4.29363 12.9189 4.29485L12.9589 4.24682L12.9147 4.20262L12.9105 4.20689C11.7454 3.25665 10.2734 2.76267 8.76953 2.81868C7.24475 2.87547 5.79471 3.49367 4.69798 4.55451C3.60125 5.61535 2.93518 7.04402 2.8277 8.56608C2.72023 10.0881 3.17894 11.5962 4.11572 12.8007C5.0525 14.0051 6.40127 14.8209 7.90295 15.0914C9.40463 15.3619 10.9533 15.068 12.2515 14.2661C13.5496 13.4643 14.5057 12.211 14.9361 10.7471C15.3665 9.28324 15.2408 7.71195 14.5831 6.3351C14.551 6.2682 14.5324 6.19561 14.5285 6.1215C14.5245 6.0474 14.5353 5.97324 14.5601 5.90331C14.585 5.83337 14.6234 5.76905 14.6732 5.71403C14.723 5.65902 14.7832 5.6144 14.8503 5.58276C14.9172 5.55062 14.9898 5.53205 15.0639 5.5281C15.138 5.52415 15.2122 5.5349 15.2821 5.55973C15.3521 5.58457 15.4164 5.623 15.4714 5.67281C15.5264 5.72261 15.571 5.78282 15.6027 5.84994L12.9145 4.2912ZM13.7639 3.53043L13.8048 3.48935M13.7639 3.53043L13.8048 3.48935M13.8048 3.48935L15.3916 1.89555C15.4885 1.81696 15.611 1.77686 15.7357 1.78299C15.8615 1.78916 15.9804 1.84188 16.0694 1.93088C16.1584 2.01989 16.2111 2.13881 16.2173 2.26453C16.2234 2.38925 16.1833 2.51181 16.1047 2.60874L13.8048 3.48935Z" fill="#8E8E93" stroke="#797DED" stroke-width="0.125"/>
</svg>
