<svg width="24" height="25" viewBox="0 0 24 25" fill="none" xmlns="http://www.w3.org/2000/svg">
<path d="M23.25 19.7001C23.25 19.899 23.171 20.0897 23.0303 20.2304C22.8897 20.371 22.6989 20.4501 22.5 20.4501H1.5C1.30109 20.4501 1.11032 20.371 0.96967 20.2304C0.829018 20.0897 0.75 19.899 0.75 19.7001C0.75 19.5011 0.829018 19.3104 0.96967 19.1697C1.11032 19.0291 1.30109 18.9501 1.5 18.9501H22.5C22.6989 18.9501 22.8897 19.0291 23.0303 19.1697C23.171 19.3104 23.25 19.5011 23.25 19.7001ZM1.52812 9.40631C1.48343 9.24913 1.49129 9.08165 1.55052 8.92934C1.60975 8.77704 1.7171 8.64825 1.85625 8.56256L11.6063 2.56256C11.7242 2.4885 11.8607 2.44922 12 2.44922C12.1393 2.44922 12.2758 2.4885 12.3937 2.56256L22.1437 8.56256C22.2823 8.64841 22.3891 8.77706 22.448 8.92903C22.5069 9.081 22.5147 9.24802 22.4702 9.40481C22.4257 9.56161 22.3313 9.69964 22.2014 9.79802C22.0714 9.89639 21.913 9.94977 21.75 9.95006H19.5V15.9501H21C21.1989 15.9501 21.3897 16.0291 21.5303 16.1697C21.671 16.3104 21.75 16.5011 21.75 16.7001C21.75 16.899 21.671 17.0897 21.5303 17.2304C21.3897 17.371 21.1989 17.4501 21 17.4501H3C2.80109 17.4501 2.61032 17.371 2.46967 17.2304C2.32902 17.0897 2.25 16.899 2.25 16.7001C2.25 16.5011 2.32902 16.3104 2.46967 16.1697C2.61032 16.0291 2.80109 15.9501 3 15.9501H4.5V9.95006H2.25C2.08692 9.95023 1.92823 9.89724 1.79796 9.79912C1.6677 9.701 1.57297 9.5631 1.52812 9.40631ZM13.5 15.2001C13.5 15.399 13.579 15.5897 13.7197 15.7304C13.8603 15.871 14.0511 15.9501 14.25 15.9501C14.4489 15.9501 14.6397 15.871 14.7803 15.7304C14.921 15.5897 15 15.399 15 15.2001V10.7001C15 10.5011 14.921 10.3104 14.7803 10.1697C14.6397 10.0291 14.4489 9.95006 14.25 9.95006C14.0511 9.95006 13.8603 10.0291 13.7197 10.1697C13.579 10.3104 13.5 10.5011 13.5 10.7001V15.2001ZM9 15.2001C9 15.399 9.07902 15.5897 9.21967 15.7304C9.36032 15.871 9.55109 15.9501 9.75 15.9501C9.94891 15.9501 10.1397 15.871 10.2803 15.7304C10.421 15.5897 10.5 15.399 10.5 15.2001V10.7001C10.5 10.5011 10.421 10.3104 10.2803 10.1697C10.1397 10.0291 9.94891 9.95006 9.75 9.95006C9.55109 9.95006 9.36032 10.0291 9.21967 10.1697C9.07902 10.3104 9 10.5011 9 10.7001V15.2001Z" fill="#32384A"/>
</svg>
