<svg width="28" height="28" viewBox="0 0 28 28" fill="none" xmlns="http://www.w3.org/2000/svg">
<path d="M25.55 21.3936L25.4896 21.4098C25.6057 21.842 25.5453 22.3026 25.3218 22.6902C25.0983 23.0779 24.73 23.3609 24.2978 23.477L20.9193 24.3845C20.7769 24.4171 20.6314 24.4348 20.4853 24.4374C20.1126 24.4381 19.7502 24.3154 19.4546 24.0884C19.1588 23.8613 18.9466 23.5427 18.851 23.1823L18.851 23.1821L15.8104 11.84L15.6875 11.8561V22.7499C15.6875 23.1974 15.5097 23.6267 15.1932 23.9431C14.8768 24.2596 14.4476 24.4374 14 24.4374H10.5002C10.2034 24.4366 9.91225 24.3565 9.65681 24.2055L9.625 24.1867L9.59319 24.2055C9.33775 24.3565 9.04659 24.4366 8.74983 24.4374H5.25C4.80245 24.4374 4.37322 24.2596 4.05676 23.9431C3.74029 23.6267 3.5625 23.1974 3.5625 22.7499V5.24989C3.5625 4.80233 3.74029 4.37311 4.05676 4.05664C4.37322 3.74018 4.80245 3.56239 5.25 3.56239H8.74992C9.04665 3.5632 9.33777 3.64327 9.59319 3.79431L9.625 3.81312L9.65681 3.79431C9.91223 3.64327 10.2034 3.5632 10.5001 3.56239H14C14.2593 3.56279 14.515 3.62294 14.7472 3.73816C14.9795 3.8534 15.1822 4.02062 15.3394 4.22684L15.3656 4.26124L15.407 4.24881L15.5155 4.21626L18.8943 3.30869C19.3265 3.19267 19.787 3.25305 20.1747 3.47654C20.5623 3.70003 20.8454 4.06832 20.9615 4.50043L25.55 21.3936ZM25.55 21.3936L25.4896 21.4098L20.9615 4.50048L25.55 21.3936ZM19.3869 4.92719L19.3705 4.86712L19.3103 4.88328L15.9307 5.79109L15.8701 5.80736L15.8866 5.86789L16.5756 8.39446L16.592 8.45452L16.6522 8.43837L20.0318 7.53056L20.0924 7.51428L20.0759 7.45375L19.3869 4.92719ZM14.0625 5.24989V5.18739H14H10.5H10.4375V5.24989V18.3749V18.4374H10.5H14H14.0625V18.3749V5.24989ZM8.8125 5.24989V5.18739H8.75H5.25H5.1875V5.24989V7.87489V7.93739H5.25H8.75H8.8125V7.87489V5.24989ZM14 22.8124H14.0625V22.7499V20.1249V20.0624H14H10.5H10.4375V20.1249V22.7499V22.8124H10.5H14ZM23.8818 21.9024L23.9421 21.8862L23.926 21.8259L23.2479 19.2884L23.2317 19.228L23.1713 19.2442L19.7807 20.152L19.7201 20.1682L19.7366 20.2288L20.4256 22.7663L20.442 22.8264L20.5022 22.8102L23.8818 21.9024Z" fill="#8E8E93" stroke="#8E8E93" stroke-width="0.125"/>
</svg>
