<svg width="24" height="24" viewBox="0 0 24 24" fill="none" xmlns="http://www.w3.org/2000/svg">
<path d="M12 16.5C16.1421 16.5 19.5 13.1421 19.5 9C19.5 4.85786 16.1421 1.5 12 1.5C7.85786 1.5 4.5 4.85786 4.5 9C4.5 13.1421 7.85786 16.5 12 16.5Z" fill="#32384A"/>
<path d="M19.425 16.425C19.5543 16.2824 19.6237 16.0954 19.619 15.903C19.6142 15.7105 19.5357 15.5272 19.3995 15.3911C19.2634 15.255 19.0801 15.1764 18.8877 15.1717C18.6952 15.1669 18.5083 15.2364 18.3656 15.3656C16.6773 17.0539 14.3876 18.0024 12 18.0024C9.61241 18.0024 7.32262 17.0539 5.63436 15.3656C3.94609 13.6774 2.99763 11.3876 2.99763 9.00002C2.99763 6.61245 3.94609 4.32267 5.63436 2.6344C5.70965 2.56618 5.77029 2.48338 5.81261 2.39101C5.85493 2.29864 5.87804 2.19864 5.88054 2.09707C5.88304 1.99551 5.86488 1.89449 5.82716 1.80015C5.78943 1.70581 5.73294 1.62012 5.6611 1.54828C5.58926 1.47644 5.50357 1.41995 5.40923 1.38222C5.31489 1.3445 5.21388 1.32634 5.11231 1.32884C5.01074 1.33134 4.91074 1.35445 4.81837 1.39677C4.726 1.43909 4.6432 1.49973 4.57498 1.57502C3.15198 2.99836 2.16804 4.80069 1.74033 6.76739C1.31261 8.73408 1.45915 10.7823 2.16248 12.668C2.86582 14.5538 4.09632 16.1977 5.70746 17.404C7.31859 18.6102 9.24246 19.328 11.25 19.4719V21H8.99998C8.80107 21 8.6103 21.079 8.46965 21.2197C8.329 21.3603 8.24998 21.5511 8.24998 21.75C8.24998 21.9489 8.329 22.1397 8.46965 22.2804C8.6103 22.421 8.80107 22.5 8.99998 22.5H15C15.1989 22.5 15.3897 22.421 15.5303 22.2804C15.671 22.1397 15.75 21.9489 15.75 21.75C15.75 21.5511 15.671 21.3603 15.5303 21.2197C15.3897 21.079 15.1989 21 15 21H12.75V19.4719C15.2698 19.2954 17.6408 18.2131 19.425 16.425Z" fill="#32384A"/>
</svg>
