<svg width="17" height="17" viewBox="0 0 17 17" fill="none" xmlns="http://www.w3.org/2000/svg">
<path d="M13.6882 10.125C13.6899 10.3557 13.6197 10.5812 13.4874 10.7702C13.3551 10.9592 13.1673 11.1023 12.9499 11.1797L9.27961 12.5297L7.92961 16.2C7.8497 16.4153 7.7058 16.601 7.51727 16.7321C7.32873 16.8632 7.10458 16.9335 6.87492 16.9335C6.64527 16.9335 6.42112 16.8632 6.23258 16.7321C6.04404 16.601 5.90015 16.4153 5.82024 16.2L4.47024 12.5297L0.799923 11.1797C0.584624 11.0998 0.398939 10.9559 0.267814 10.7673C0.13669 10.5788 0.0664062 10.3547 0.0664062 10.125C0.0664062 9.89535 0.13669 9.6712 0.267814 9.48266C0.398939 9.29412 0.584624 9.15023 0.799923 9.07031L4.47024 7.72031L5.82024 4.05C5.90015 3.8347 6.04404 3.64902 6.23258 3.51789C6.42112 3.38677 6.64527 3.31648 6.87492 3.31648C7.10458 3.31648 7.32873 3.38677 7.51727 3.51789C7.7058 3.64902 7.8497 3.8347 7.92961 4.05L9.27961 7.72031L12.9499 9.07031C13.1673 9.14769 13.3551 9.29082 13.4874 9.47981C13.6197 9.66881 13.6899 9.89431 13.6882 10.125ZM9.68742 3.375H10.8124V4.5C10.8124 4.64918 10.8717 4.79226 10.9772 4.89775C11.0827 5.00324 11.2257 5.0625 11.3749 5.0625C11.5241 5.0625 11.6672 5.00324 11.7727 4.89775C11.8782 4.79226 11.9374 4.64918 11.9374 4.5V3.375H13.0624C13.2116 3.375 13.3547 3.31574 13.4602 3.21025C13.5657 3.10476 13.6249 2.96168 13.6249 2.8125C13.6249 2.66332 13.5657 2.52024 13.4602 2.41475C13.3547 2.30926 13.2116 2.25 13.0624 2.25H11.9374V1.125C11.9374 0.975816 11.8782 0.832742 11.7727 0.727252C11.6672 0.621763 11.5241 0.5625 11.3749 0.5625C11.2257 0.5625 11.0827 0.621763 10.9772 0.727252C10.8717 0.832742 10.8124 0.975816 10.8124 1.125V2.25H9.68742C9.53824 2.25 9.39516 2.30926 9.28968 2.41475C9.18419 2.52024 9.12492 2.66332 9.12492 2.8125C9.12492 2.96168 9.18419 3.10476 9.28968 3.21025C9.39516 3.31574 9.53824 3.375 9.68742 3.375ZM15.8749 5.625H15.3124V5.0625C15.3124 4.91332 15.2532 4.77024 15.1477 4.66475C15.0422 4.55926 14.8991 4.5 14.7499 4.5C14.6007 4.5 14.4577 4.55926 14.3522 4.66475C14.2467 4.77024 14.1874 4.91332 14.1874 5.0625V5.625H13.6249C13.4757 5.625 13.3327 5.68426 13.2272 5.78975C13.1217 5.89524 13.0624 6.03832 13.0624 6.1875C13.0624 6.33668 13.1217 6.47976 13.2272 6.58525C13.3327 6.69074 13.4757 6.75 13.6249 6.75H14.1874V7.3125C14.1874 7.46168 14.2467 7.60476 14.3522 7.71025C14.4577 7.81574 14.6007 7.875 14.7499 7.875C14.8991 7.875 15.0422 7.81574 15.1477 7.71025C15.2532 7.60476 15.3124 7.46168 15.3124 7.3125V6.75H15.8749C16.0241 6.75 16.1672 6.69074 16.2727 6.58525C16.3782 6.47976 16.4374 6.33668 16.4374 6.1875C16.4374 6.03832 16.3782 5.89524 16.2727 5.78975C16.1672 5.68426 16.0241 5.625 15.8749 5.625Z" fill="#8E8E93"/>
</svg>
