<svg width="24" height="24" viewBox="0 0 24 24" fill="none" xmlns="http://www.w3.org/2000/svg">
<path d="M20.9531 15.8625C20.9726 15.8268 20.9884 15.7891 20.9999 15.75C21.854 13.7008 21.9832 11.4215 21.3661 9.28898C20.749 7.15643 19.4226 5.29832 17.6062 4.02188L17.4937 3.95626C15.8783 2.84257 13.962 2.24741 11.9999 2.25001C10.22 2.25064 8.47416 2.73853 6.95175 3.66076C5.42933 4.58299 4.18843 5.90438 3.36356 7.48167C2.5387 9.05896 2.16135 10.832 2.27242 12.6085C2.3835 14.3849 2.97877 16.0971 3.99369 17.5594V17.5781C4.01643 17.6141 4.04148 17.6485 4.06869 17.6813C4.83033 18.743 5.79762 19.6408 6.91307 20.3213C8.02853 21.0018 9.26939 21.4512 10.5619 21.6427C11.8545 21.8342 13.1723 21.764 14.4372 21.4362C15.7021 21.1084 16.8881 20.5296 17.9249 19.7344L18.0562 19.6313C19.3144 18.6297 20.3088 17.336 20.9531 15.8625ZM5.76556 17.4L6.13119 17.175C6.35174 17.0433 6.53425 16.8565 6.66081 16.633C6.78736 16.4095 6.85362 16.1569 6.85306 15.9L6.87181 12.7313C6.87461 12.5882 6.91678 12.4488 6.99369 12.3281L8.30619 10.2656C8.36099 10.1798 8.4327 10.106 8.51696 10.0488C8.60121 9.99156 8.69623 9.9521 8.79623 9.9328C8.89623 9.9135 8.99912 9.91477 9.09861 9.93653C9.19811 9.9583 9.29213 10.0001 9.37494 10.0594L10.5749 10.9313C10.8907 11.1547 11.2787 11.2517 11.6624 11.2031L14.6062 10.8C14.9707 10.7534 15.3048 10.5729 15.5437 10.2938L17.6156 7.89376C17.7429 7.75159 17.8407 7.58559 17.9035 7.40537C17.9663 7.22514 17.9927 7.03426 17.9812 6.84376L17.9624 6.30001C19.4326 7.83318 20.2524 9.87585 20.2499 12C20.2508 12.7415 20.1499 13.4797 19.9499 14.1938L18.4593 12.825C18.2486 12.6335 17.9881 12.5054 17.7077 12.4556C17.4274 12.4059 17.1387 12.4364 16.8749 12.5438L14.0156 13.7344C13.7771 13.8341 13.5683 13.9934 13.4091 14.1969C13.2499 14.4004 13.1456 14.6415 13.1062 14.8969L12.8812 16.4156C12.8294 16.7821 12.9133 17.1549 13.117 17.4639C13.3207 17.7729 13.6302 17.9969 13.9874 18.0938L16.0031 18.6188L16.3781 18.9938C14.7098 20.0375 12.7233 20.4505 10.7773 20.1582C8.8312 19.866 7.0537 18.8877 5.76556 17.4V17.4Z" fill="#32384A"/>
</svg>
