<svg width="29" height="28" viewBox="0 0 29 28" fill="none" xmlns="http://www.w3.org/2000/svg">
<path d="M14.7998 24.5C20.5988 24.5 25.2998 19.799 25.2998 14C25.2998 8.20101 20.5988 3.5 14.7998 3.5C9.00081 3.5 4.2998 8.20101 4.2998 14C4.2998 19.799 9.00081 24.5 14.7998 24.5Z" stroke="#8E8E93" stroke-width="2" stroke-linecap="round" stroke-linejoin="round"/>
<path d="M14.7998 17.5C17.2161 17.5 19.1748 15.5412 19.1748 13.125C19.1748 10.7088 17.2161 8.75 14.7998 8.75C12.3836 8.75 10.4248 10.7088 10.4248 13.125C10.4248 15.5412 12.3836 17.5 14.7998 17.5Z" stroke="#8E8E93" stroke-width="2" stroke-linecap="round" stroke-linejoin="round"/>
<path d="M7.77832 21.8096C8.43666 20.5128 9.44121 19.4237 10.6806 18.663C11.9201 17.9022 13.3459 17.4995 14.8002 17.4995C16.2545 17.4995 17.6803 17.9022 18.9198 18.663C20.1592 19.4237 21.1637 20.5128 21.8221 21.8096" stroke="#8E8E93" stroke-width="2" stroke-linecap="round" stroke-linejoin="round"/>
</svg>
