<svg width="14" height="15" viewBox="0 0 14 15" fill="none" xmlns="http://www.w3.org/2000/svg">
<path d="M12.625 0.8125H1.375C1.07663 0.8125 0.790483 0.931026 0.579505 1.142C0.368526 1.35298 0.25 1.63913 0.25 1.9375V6.06484C0.25 12.3508 5.57969 14.4391 6.64844 14.7906C6.87679 14.8657 7.12321 14.8657 7.35156 14.7906C8.42031 14.4391 13.75 12.3508 13.75 6.06484V1.9375C13.75 1.63913 13.6315 1.35298 13.4205 1.142C13.2095 0.931026 12.9234 0.8125 12.625 0.8125ZM10.4805 5.72031L6.36016 9.65781C6.25363 9.75802 6.11265 9.8134 5.96641 9.8125C5.82232 9.81305 5.68365 9.75758 5.57969 9.65781L3.51953 7.68906C3.46239 7.63921 3.41592 7.57832 3.38291 7.51005C3.3499 7.44177 3.33104 7.36753 3.32746 7.29179C3.32387 7.21604 3.33564 7.14035 3.36206 7.06927C3.38847 6.99818 3.42899 6.93318 3.48116 6.87815C3.53334 6.82313 3.59611 6.77922 3.66569 6.74907C3.73527 6.71892 3.81023 6.70315 3.88606 6.70271C3.96189 6.70227 4.03703 6.71717 4.10696 6.74651C4.17688 6.77585 4.24015 6.81902 4.29297 6.87344L5.96641 8.46953L9.70703 4.90469C9.8164 4.80927 9.95843 4.75982 10.1034 4.76667C10.2484 4.77353 10.3851 4.83617 10.485 4.94149C10.5849 5.04682 10.6402 5.18667 10.6393 5.33181C10.6385 5.47696 10.5816 5.61616 10.4805 5.72031Z" fill="#8E8E93"/>
</svg>
