<svg width="24" height="25" viewBox="0 0 24 25" fill="none" xmlns="http://www.w3.org/2000/svg">
<path d="M20.25 4.1499H3.75C3.35218 4.1499 2.97064 4.30794 2.68934 4.58924C2.40804 4.87055 2.25 5.25208 2.25 5.6499V19.1499C2.25 19.5477 2.40804 19.9293 2.68934 20.2106C2.97064 20.4919 3.35218 20.6499 3.75 20.6499H5.00625C5.14827 20.6503 5.2874 20.6099 5.40708 20.5334C5.52676 20.4569 5.62193 20.3477 5.68125 20.2187C6.04822 19.4507 6.62505 18.8022 7.34505 18.3483C8.06506 17.8943 8.89884 17.6534 9.75 17.6534C10.6012 17.6534 11.4349 17.8943 12.1549 18.3483C12.875 18.8022 13.4518 19.4507 13.8187 20.2187C13.8781 20.3477 13.9732 20.4569 14.0929 20.5334C14.2126 20.6099 14.3517 20.6503 14.4938 20.6499H20.25C20.6478 20.6499 21.0294 20.4919 21.3107 20.2106C21.592 19.9293 21.75 19.5477 21.75 19.1499V5.6499C21.75 5.25208 21.592 4.87055 21.3107 4.58924C21.0294 4.30794 20.6478 4.1499 20.25 4.1499V4.1499ZM9.75 16.1499C9.15666 16.1499 8.57664 15.974 8.08329 15.6443C7.58994 15.3147 7.20542 14.8461 6.97836 14.298C6.7513 13.7498 6.69189 13.1466 6.80764 12.5646C6.9234 11.9827 7.20912 11.4481 7.62868 11.0286C8.04824 10.609 8.58279 10.3233 9.16473 10.2075C9.74667 10.0918 10.3499 10.1512 10.8981 10.3783C11.4462 10.6053 11.9148 10.9898 12.2444 11.4832C12.5741 11.9765 12.75 12.5566 12.75 13.1499C12.7475 13.9448 12.4307 14.7064 11.8686 15.2685C11.3065 15.8306 10.5449 16.1474 9.75 16.1499ZM20.25 19.1499H14.9437C14.6188 18.5864 14.204 18.0797 13.7156 17.6499H18C18.1989 17.6499 18.3897 17.5709 18.5303 17.4302C18.671 17.2896 18.75 17.0988 18.75 16.8999V7.8999C18.75 7.70099 18.671 7.51022 18.5303 7.36957C18.3897 7.22892 18.1989 7.1499 18 7.1499H6C5.80109 7.1499 5.61032 7.22892 5.46967 7.36957C5.32902 7.51022 5.25 7.70099 5.25 7.8999V16.8999C5.25095 17.0654 5.30664 17.226 5.40839 17.3566C5.51013 17.4872 5.65222 17.5804 5.8125 17.6218C5.31233 18.0584 4.88785 18.5747 4.55625 19.1499H3.75V5.6499H20.25V19.1499Z" fill="#32384A"/>
</svg>
